<?xml version="1.0" standalone="no"?>

<svg version="1.0" xmlns="http://www.w3.org/2000/svg"
    width="18px" height="18px" viewBox="0 0 463.000000 512.000000"
    preserveAspectRatio="xMidYMid meet">

    <g transform="translate(0.000000,512.000000) scale(0.100000,-0.100000)"
        fill="#000000" stroke="none" width="18px" height="18px">
        <path d="M1550 4875 l0 -245 728 2 727 3 3 243 2 242 -730 0 -730 0 0 -245z"/>
        <path d="M2098 4380 c-449 -40 -859 -205 -1203 -483 -104 -84 -284 -270 -365
-377 -224 -295 -372 -651 -426 -1025 -23 -159 -23 -439 -1 -596 93 -638 432
-1179 962 -1531 266 -177 571 -294 895 -344 141 -21 452 -24 590 -5 596 81
1124 387 1472 852 236 316 372 647 429 1044 19 132 17 445 -4 585 -56 368
-197 712 -404 989 l-55 73 172 173 173 173 -52 61 c-29 33 -105 111 -169 171
l-116 111 -173 -173 c-132 -132 -176 -171 -187 -163 -358 258 -688 398 -1057
450 -137 19 -360 26 -481 15z m423 -496 c750 -104 1349 -711 1450 -1471 17
-126 6 -431 -20 -555 -125 -609 -572 -1106 -1161 -1293 -162 -51 -264 -67
-452 -72 -203 -6 -318 5 -484 47 -635 160 -1113 662 -1256 1321 -19 90 -22
134 -23 324 0 191 3 235 23 334 119 588 517 1059 1078 1275 104 40 269 82 369
95 117 14 356 12 476 -5z"/>
        <path d="M2030 2680 l0 -730 245 0 245 0 0 730 0 730 -245 0 -245 0 0 -730z"/>
    </g>
</svg>
